<svg width="389" height="367" viewBox="0 0 389 367" fill="none" xmlns="http://www.w3.org/2000/svg">
<path fill-rule="evenodd" clip-rule="evenodd" d="M151.5 42.5C151.027 43.9063 150.027 44.573 148.5 44.5C148.973 43.0937 149.973 42.427 151.5 42.5Z" fill="#282828"/>
<path fill-rule="evenodd" clip-rule="evenodd" d="M215.5 41.4999C220.218 42.3331 224.884 41.8331 229.5 39.9999C242.936 36.5598 253.936 40.2264 262.5 50.9999C277.77 51.2841 288.104 58.4508 293.5 72.4999C290.354 67.0923 286.354 62.2589 281.5 57.9999C276.529 55.0055 271.196 53.6722 265.5 53.9999C270.296 60.629 275.629 66.7956 281.5 72.4999C277.598 70.1073 274.098 67.1073 271 63.4999C268.167 59.9999 265.333 56.4999 262.5 52.9999C253.833 52.6666 245.167 52.3332 236.5 51.9999C230.258 49.9777 224.258 47.4777 218.5 44.4999C203.974 48.7629 189.641 48.0962 175.5 42.4999C173.004 43.2514 170.67 44.2514 168.5 45.4999C169.343 43.8266 170.676 42.6599 172.5 41.9999C165.436 39.961 158.436 40.1276 151.5 42.4999C152.6 41.4414 153.934 40.6081 155.5 39.9999C161.706 39.2281 167.872 39.3948 174 40.4999C188.152 30.938 201.986 31.2714 215.5 41.4999Z" fill="#303030"/>
<path fill-rule="evenodd" clip-rule="evenodd" d="M148.5 44.5C145.204 48.2976 141.704 51.9643 138 55.5C136.623 56.9642 136.623 57.9642 138 58.5C149.23 56.4635 159.396 52.1302 168.5 45.5C158.629 54.4295 146.963 59.5961 133.5 61C124.413 73.0617 112.413 80.7283 97.5 84C95.206 91.2143 92.706 98.3809 90 105.5C88.7225 107.747 87.2225 109.747 85.5 111.5C89.3121 103.238 92.6454 94.7382 95.5 86C94.1807 85.805 92.8474 85.9717 91.5 86.5C92.4057 85.0351 93.739 84.0351 95.5 83.5C97.0192 79.7806 99.0192 76.4472 101.5 73.5C100.58 76.508 99.2465 79.3413 97.5 82C110.926 79.532 122.093 73.032 131 62.5C131.688 61.6683 131.521 61.0016 130.5 60.5C122.917 61.651 115.583 63.651 108.5 66.5C110.649 64.2542 113.316 62.7542 116.5 62C122.037 60.2736 127.704 59.2736 133.5 59C137.729 53.2696 142.729 48.4362 148.5 44.5Z" fill="#2F2F2F"/>
<path fill-rule="evenodd" clip-rule="evenodd" d="M108.5 66.5C106.5 69.1667 104.167 71.5 101.5 73.5C102.833 70.1667 105.167 67.8333 108.5 66.5Z" fill="#2C2C2C"/>
<path fill-rule="evenodd" clip-rule="evenodd" d="M293.5 72.5C295.104 73.287 295.771 74.6203 295.5 76.5C293.896 75.713 293.229 74.3797 293.5 72.5Z" fill="#333333"/>
<path fill-rule="evenodd" clip-rule="evenodd" d="M281.5 72.5C285.661 74.7454 289.995 76.7454 294.5 78.5C295.298 78.0431 295.631 77.3764 295.5 76.5C296.364 77.6883 297.364 78.8549 298.5 80C301.823 81.0399 304.823 82.5399 307.5 84.5C305.213 84.2761 303.047 83.6094 301 82.5C300.5 82.8333 300 83.1667 299.5 83.5C300.127 84.4168 300.461 85.4168 300.5 86.5C298.821 85.0003 297.488 83.167 296.5 81C290.819 79.1654 285.819 76.3321 281.5 72.5Z" fill="#292929"/>
<path fill-rule="evenodd" clip-rule="evenodd" d="M300.5 86.5C302.664 88.822 304.331 91.4887 305.5 94.5C302.836 92.5156 301.169 89.8489 300.5 86.5Z" fill="#292929"/>
<path fill-rule="evenodd" clip-rule="evenodd" d="M91.5 86.5C89.8525 88.3264 87.8525 89.6597 85.5 90.5C86.8021 88.1782 88.8021 86.8449 91.5 86.5Z" fill="#2A2A2A"/>
<path fill-rule="evenodd" clip-rule="evenodd" d="M307.5 84.5C316.649 86.8119 322.816 92.4786 326 101.5C326.763 106.046 327.929 110.379 329.5 114.5C328.391 114.443 327.391 114.11 326.5 113.5C321.685 109.53 316.685 105.697 311.5 102C308.882 99.8943 306.882 97.3943 305.5 94.5C311.669 99.8326 318.002 104.999 324.5 110C325.6 110.432 326.267 109.932 326.5 108.5C325.397 103.018 323.23 98.0178 320 93.5C316.031 90.1107 311.864 87.1107 307.5 84.5Z" fill="#2D2D2D"/>
<path fill-rule="evenodd" clip-rule="evenodd" d="M153.5 142.5C151.735 141.539 149.735 141.205 147.5 141.5C147.5 159.167 147.5 176.833 147.5 194.5C147.753 196.827 147.086 198.827 145.5 200.5C149.783 201.492 154.116 201.826 158.5 201.5C158.5 205.5 158.5 209.5 158.5 213.5C146.5 213.5 134.5 213.5 122.5 213.5C122.5 209.5 122.5 205.5 122.5 201.5C126.287 202.186 129.454 201.186 132 198.5C132.667 180.5 132.667 162.5 132 144.5C129.174 142.66 126.007 141.994 122.5 142.5C122.5 138.5 122.5 134.5 122.5 130.5C135.504 130.333 148.504 130.5 161.5 131C184.183 135.867 190.683 148.7 181 169.5C179.127 171.709 176.96 173.542 174.5 175C180.392 177.892 184.559 182.392 187 188.5C188.981 195.367 190.315 202.367 191 209.5C195.333 227.443 204.666 230.443 219 218.5C221.5 221.667 224 224.833 226.5 228C215.965 238.768 203.632 241.435 189.5 236C185.519 232.891 182.352 229.058 180 224.5C176.978 215.392 174.978 206.058 174 196.5C172.084 186.736 166.251 182.069 156.5 182.5C156.5 178.5 156.5 174.5 156.5 170.5C167.452 168.29 171.618 161.623 169 150.5C165.337 145.084 160.17 142.417 153.5 142.5Z" fill="#4A4A4C"/>
<path fill-rule="evenodd" clip-rule="evenodd" d="M223.5 130.5C223.5 134.167 223.5 137.833 223.5 141.5C225.099 141.232 226.432 141.566 227.5 142.5C225.833 142.5 224.167 142.5 222.5 142.5C222.183 138.298 222.517 134.298 223.5 130.5Z" fill="#99999A"/>
<path fill-rule="evenodd" clip-rule="evenodd" d="M223.5 130.5C235.833 130.5 248.167 130.5 260.5 130.5C260.5 134.167 260.5 137.833 260.5 141.5C257.615 141.194 254.948 141.527 252.5 142.5C260.151 161.808 267.818 181.141 275.5 200.5C278.428 201.484 281.428 201.817 284.5 201.5C284.5 205.5 284.5 209.5 284.5 213.5C273.167 213.5 261.833 213.5 250.5 213.5C250.5 209.5 250.5 205.5 250.5 201.5C252.833 201.5 255.167 201.5 257.5 201.5C257.684 197.921 257.017 194.587 255.5 191.5C245.828 191.334 236.161 191.5 226.5 192C224.998 195.005 223.998 198.171 223.5 201.5C226.5 201.5 229.5 201.5 232.5 201.5C232.5 205.5 232.5 209.5 232.5 213.5C221.167 213.5 209.833 213.5 198.5 213.5C198.5 209.5 198.5 205.5 198.5 201.5C204.596 203.074 208.762 201.074 211 195.5C217.974 178.23 224.308 160.896 230 143.5C229.329 142.748 228.496 142.414 227.5 142.5C226.432 141.566 225.099 141.232 223.5 141.5C223.5 137.833 223.5 134.167 223.5 130.5Z" fill="#49494B"/>
<path fill-rule="evenodd" clip-rule="evenodd" d="M85.5 90.5C78.2306 99.1438 75.064 109.144 76 120.5C79.0359 117.296 82.2026 114.296 85.5 111.5C82.9396 115.57 79.7729 119.236 76 122.5C75.1532 128.037 73.9865 133.37 72.5 138.5C73.0965 134.168 73.2632 129.835 73 125.5C68.9648 129.2 65.2981 133.2 62 137.5C56.7554 145.504 56.2554 153.504 60.5 161.5C60.3225 162.695 59.9891 163.862 59.5 165C62.0729 172.051 64.2396 179.218 66 186.5C66.8028 193.76 66.3028 200.927 64.5 208C67.12 212.739 69.62 217.573 72 222.5C73.772 226.313 74.6053 230.313 74.5 234.5C74.7373 235.791 74.404 236.791 73.5 237.5C73.3839 227.692 70.2172 219.025 64 211.5C61.6789 221.687 62.1789 231.687 65.5 241.5C62.9624 238.755 61.4624 235.422 61 231.5C60.6776 223.444 61.0109 215.444 62 207.5C58.1919 201.551 55.1919 195.217 53 188.5C52.3333 184.167 52.3333 179.833 53 175.5C53.6701 172.826 54.8368 170.493 56.5 168.5C56.742 160.557 56.9087 152.557 57 144.5C60.7535 135.739 66.4202 128.406 74 122.5C73.2393 111.54 75.9059 101.54 82 92.5C82.8159 91.1772 83.9826 90.5106 85.5 90.5Z" fill="#303030"/>
<path fill-rule="evenodd" clip-rule="evenodd" d="M153.5 142.5C151.833 142.5 150.167 142.5 148.5 142.5C148.83 160.008 148.497 177.341 147.5 194.5C147.5 176.833 147.5 159.167 147.5 141.5C149.735 141.205 151.735 141.539 153.5 142.5Z" fill="#737373"/>
<path fill-rule="evenodd" clip-rule="evenodd" d="M72.5 138.5C70.3243 147.187 66.3243 154.854 60.5 161.5C64.7738 153.952 68.7738 146.285 72.5 138.5Z" fill="#323232"/>
<path fill-rule="evenodd" clip-rule="evenodd" d="M250.5 179.5C244.021 180.491 237.354 180.824 230.5 180.5C233.494 171.024 236.994 161.69 241 152.5C244.671 161.347 247.837 170.347 250.5 179.5Z" fill="#F5F5F5"/>
<path fill-rule="evenodd" clip-rule="evenodd" d="M250.5 179.5C251.043 179.56 251.376 179.893 251.5 180.5C244.344 181.819 237.344 181.819 230.5 180.5C237.354 180.824 244.021 180.491 250.5 179.5Z" fill="#A6A6A6"/>
<path fill-rule="evenodd" clip-rule="evenodd" d="M339.585 158.5C338.894 165.149 338.764 171.816 339.193 178.5C340.506 185.018 342.207 191.352 344.296 197.5C348.546 189.286 349.2 180.619 346.259 171.5C344.352 167.256 342.652 162.922 341.155 158.5C350.081 171.572 351.39 185.906 345.081 201.5C346.811 210.992 345.895 219.992 342.333 228.5C341.777 229.381 341.122 230.047 340.37 230.5C343.038 225.361 344.608 219.695 345.081 213.5C345.06 210.032 344.536 206.698 343.511 203.5C342.188 205.571 340.879 207.571 339.585 209.5C340.534 206.279 341.843 203.279 343.511 200.5C339.043 188.412 337.342 175.746 338.408 162.5C338.572 160.942 338.965 159.609 339.585 158.5Z" fill="#2D2D2D"/>
<path fill-rule="evenodd" clip-rule="evenodd" d="M326.446 111.145C327.288 117.776 328.68 124.298 330.62 130.708C333.384 136.756 336.483 142.536 339.917 148.046C342.184 139.08 340.847 130.492 335.906 122.283C333.083 118.585 330.44 114.752 327.975 110.787C339.644 121.482 344.184 135.141 341.593 151.762C345.44 160.611 349.746 170.904 348.216 180C347.875 180.984 348.629 180.388 348 181C349.427 175.388 347.673 171.053 345 164C344.189 160.628 342.247 156.948 340.52 154.067C339.703 156.385 339.82 158.827 339 161C339.19 157.647 338.846 154.232 339.836 151.146C332.733 140.394 328.191 128.448 326.211 115.308C326.016 113.753 326.095 112.366 326.446 111.145Z" fill="#2D2D2D"/>
<path fill-rule="evenodd" clip-rule="evenodd" d="M74.5 234.5C75.4682 236.607 75.8016 238.941 75.5 241.5C74.5655 242.568 74.2322 243.901 74.5 245.5C73.5269 243.052 73.1936 240.385 73.5 237.5C74.404 236.791 74.7373 235.791 74.5 234.5Z" fill="#676767"/>
<path fill-rule="evenodd" clip-rule="evenodd" d="M332 222.5L338.5 209.5C330.573 218.938 326.573 229.938 326.5 242.5C323.734 244.259 321.734 246.593 320.5 249.5C322.148 248.19 323.814 246.857 325.5 245.5C325.667 246.5 325.833 247.5 326 248.5C326.167 249.5 326.333 250.5 326.5 251.5C326.622 265.503 320.288 274.669 307.5 279C310.12 270.683 313.12 262.516 316.5 254.5C314.526 256.428 313.026 258.761 312 261.5C309.934 267.865 307.767 274.198 305.5 280.5C296.376 283.814 287.709 287.98 279.5 293C275.797 296.367 272.464 300.034 269.5 304C265.181 304.76 260.848 305.427 256.5 306C253.826 306.67 251.493 307.837 249.5 309.5C252.843 308.776 256.176 307.943 259.5 307C261.833 306.333 264.167 306.333 266.5 307C258.146 320.51 246.146 325.843 230.5 323C232.618 321.951 234.284 320.451 235.5 318.5C232.736 319.965 229.903 321.298 227 322.5C212.835 317.068 198.502 316.401 184 320.5C170.277 312.57 155.444 309.403 139.5 311C137.667 308.002 135.334 305.502 132.5 303.5C126.044 294.231 117.377 287.731 106.5 284C103.629 277.752 100.129 271.919 96 266.5C89.6162 261.115 82.9495 256.115 76 251.5C75.5017 248.183 75.335 244.85 75.5 241.5C74.5655 242.568 74.2322 243.901 74.5 245.5C74.6567 246.873 74.49 248.207 74 249.5C71.2972 246.629 68.4639 243.962 65.5 241.5C68.0604 245.57 71.2271 249.236 75 252.5C75.1913 259.94 77.5246 266.606 82 272.5C88.5158 278.343 96.0158 282.51 104.5 285C107.793 290.418 110.96 295.918 114 301.5C120.949 309.557 129.783 313.724 140.5 314C148.434 323.3 158.434 326.967 170.5 325C176.871 322.369 183.204 322.203 189.5 324.5C188.942 323.21 187.942 322.377 186.5 322L187.5 321C200.759 318.435 213.759 319.435 226.5 324C225.944 324.383 225.611 324.883 225.5 325.5C233.158 325.887 240.825 325.387 248.5 324C257.022 319.814 264.022 313.814 269.5 306C275.165 305.152 280.784 303.719 286.36 302.297C287.408 302.03 288.455 301.763 289.5 301.5C294.95 299.543 298.95 296.543 301.5 291.5C304.119 288.438 306.119 284.938 307.5 281C313.069 278.965 317.903 275.798 322 271.5C326.819 262.126 329.153 252.126 329 241.5C333.4 238.602 336.9 234.935 339.5 230.5C336.369 233.129 333.369 235.962 330.5 239C329.833 239.667 329.167 239.667 328.5 239C329.047 233.405 330.213 227.905 332 222.5ZM272.738 302.156L272.737 302.157C271.602 303.348 270.615 304.385 270 305C267.955 307 286.388 301.204 290 300C293 299 306 286 306 281.5C301.934 283.769 295.078 287.166 289.45 289.953C285.159 292.079 281.582 293.851 280.5 294.5C279.401 295.159 275.602 299.149 272.738 302.156Z" fill="#323232"/>
<path fill-rule="evenodd" clip-rule="evenodd" d="M320.5 249.5C319.92 251.749 318.587 253.415 316.5 254.5C317.08 252.251 318.413 250.585 320.5 249.5Z" fill="#303030"/>
<path fill-rule="evenodd" clip-rule="evenodd" d="M247.5 310.5C243.852 313.66 239.852 316.327 235.5 318.5C238.803 314.844 242.803 312.178 247.5 310.5Z" fill="#2B2B2B"/>
<path fill-rule="evenodd" clip-rule="evenodd" d="M189.5 324.5C195.683 327.507 202.183 329.507 209 330.5C214.79 329.736 220.29 328.07 225.5 325.5C220.917 329.752 215.417 331.752 209 331.5C201.589 331.421 195.089 329.087 189.5 324.5Z" fill="#2B2B2B"/>
</svg>
